<svg width="747" height="422" viewBox="0 0 747 422" fill="none" xmlns="http://www.w3.org/2000/svg">
<path d="M747 0H0V422H747V0Z" fill="#141035"/>
<path d="M297.22 232.751C294.23 231.631 291.83 230.021 290.02 227.911C288.21 225.801 287.19 223.231 286.98 220.191L297.62 218.911C297.83 220.351 298.38 221.601 299.26 222.671C300.14 223.741 301.33 224.591 302.82 225.231C304.31 225.871 306.02 226.191 307.94 226.191C309.49 226.191 310.89 225.981 312.14 225.551C313.39 225.121 314.39 224.551 315.14 223.831C315.89 223.111 316.26 222.301 316.26 221.391C316.31 220.271 315.67 219.321 314.34 218.551C313.01 217.781 310.9 217.181 308.02 216.751L301.7 215.711C297.22 214.961 293.94 213.671 291.86 211.831C289.78 209.991 288.77 207.361 288.82 203.951C288.82 201.281 289.57 198.941 291.06 196.911C292.55 194.881 294.62 193.321 297.26 192.231C299.9 191.141 302.93 190.591 306.34 190.591C309.75 190.591 312.54 191.101 315.18 192.111C317.82 193.121 319.97 194.551 321.62 196.391C323.27 198.231 324.26 200.321 324.58 202.671L314.26 204.271C314.15 202.621 313.33 201.261 311.78 200.191C310.23 199.121 308.31 198.591 306.02 198.591C304.74 198.591 303.59 198.801 302.58 199.231C301.57 199.661 300.77 200.191 300.18 200.831C299.59 201.471 299.27 202.191 299.22 202.991C299.22 203.951 299.75 204.751 300.82 205.391C301.89 206.031 303.65 206.591 306.1 207.071L312.34 208.031C317.57 208.991 321.34 210.471 323.66 212.471C325.98 214.471 327.14 217.121 327.14 220.431C327.14 223.201 326.31 225.661 324.66 227.791C323.01 229.921 320.67 231.561 317.66 232.711C314.65 233.861 311.19 234.431 307.3 234.431C303.41 234.431 300.21 233.871 297.22 232.751Z" fill="white"/>
<path d="M349.7 232.111C347.35 230.671 345.38 228.561 343.78 225.791H343.7L341.94 232.991H331.86V173.631H343.86V199.151H343.94C345.43 196.431 347.39 194.351 349.82 192.911C352.25 191.471 354.95 190.751 357.94 190.751C361.51 190.751 364.69 191.671 367.46 193.511C370.23 195.351 372.41 197.901 373.98 201.151C375.55 204.401 376.34 208.191 376.34 212.511C376.34 216.831 375.55 220.551 373.98 223.831C372.41 227.111 370.23 229.671 367.46 231.511C364.69 233.351 361.49 234.271 357.86 234.271C354.77 234.271 352.05 233.551 349.7 232.111ZM359.3 222.551C360.9 221.511 362.14 220.121 363.02 218.391C363.9 216.661 364.34 214.701 364.34 212.511C364.34 210.321 363.9 208.381 363.02 206.671C362.14 204.961 360.9 203.591 359.3 202.551C357.7 201.511 355.91 200.991 353.94 200.991C351.97 200.991 350.17 201.511 348.54 202.551C346.91 203.591 345.65 204.961 344.74 206.671C343.83 208.381 343.38 210.321 343.38 212.511C343.38 214.701 343.83 216.661 344.74 218.391C345.65 220.121 346.91 221.511 348.54 222.551C350.17 223.591 351.97 224.111 353.94 224.111C355.91 224.111 357.7 223.591 359.3 222.551Z" fill="white"/>
<path d="M390.94 231.831C387.55 229.991 384.9 227.421 382.98 224.111C381.06 220.801 380.1 216.941 380.1 212.511C380.1 208.081 381.06 204.201 382.98 200.871C384.9 197.541 387.55 194.961 390.94 193.151C394.33 191.341 398.31 190.431 402.9 190.431C407.49 190.431 411.35 191.341 414.82 193.151C418.29 194.961 420.94 197.541 422.78 200.871C424.62 204.201 425.54 208.081 425.54 212.511C425.54 216.941 424.62 220.801 422.78 224.111C420.94 227.421 418.29 229.991 414.82 231.831C411.35 233.671 407.38 234.591 402.9 234.591C398.42 234.591 394.33 233.671 390.94 231.831ZM408.62 223.111C410.24 222.121 411.5 220.721 412.38 218.911C413.26 217.101 413.7 214.961 413.7 212.511C413.7 210.061 413.26 207.941 412.38 206.151C411.5 204.361 410.25 202.981 408.62 201.991C406.99 201.001 405.08 200.511 402.9 200.511C400.72 200.511 398.79 201.001 397.14 201.991C395.49 202.981 394.21 204.361 393.3 206.151C392.39 207.941 391.94 210.061 391.94 212.511C391.94 214.961 392.39 217.101 393.3 218.911C394.21 220.721 395.49 222.121 397.14 223.111C398.79 224.101 400.71 224.591 402.9 224.591C405.09 224.591 406.99 224.101 408.62 223.111Z" fill="white"/>
<path d="M430.66 192.031H440.34L442.26 198.991H442.34C443.46 196.481 445.25 194.481 447.7 192.991C450.15 191.501 452.95 190.751 456.1 190.751C459.25 190.751 461.89 191.481 464.02 192.951C466.15 194.421 467.65 196.541 468.5 199.311H468.58C470.29 196.481 472.41 194.351 474.94 192.911C477.47 191.471 480.29 190.751 483.38 190.751C486.1 190.751 488.43 191.351 490.38 192.551C492.33 193.751 493.81 195.461 494.82 197.671C495.83 199.881 496.34 202.541 496.34 205.631L496.42 232.991H484.34V208.031C484.34 205.791 483.77 204.061 482.62 202.831C481.47 201.601 479.81 200.991 477.62 200.991C476.02 200.991 474.61 201.401 473.38 202.231C472.15 203.061 471.22 204.181 470.58 205.591C469.94 207.001 469.62 208.671 469.62 210.591L469.54 232.991H457.54V208.031C457.54 205.791 456.95 204.061 455.78 202.831C454.61 201.601 452.95 200.991 450.82 200.991C448.31 200.991 446.33 201.871 444.86 203.631C443.39 205.391 442.66 207.711 442.66 210.591V232.991H430.66V192.031Z" fill="white"/>
<path d="M503.97 184.391C502.61 183.081 501.93 181.391 501.93 179.311C501.93 177.921 502.24 176.711 502.85 175.671C503.46 174.631 504.3 173.821 505.37 173.231C506.44 172.641 507.69 172.351 509.13 172.351C511.32 172.351 513.06 172.981 514.37 174.231C515.68 175.481 516.33 177.181 516.33 179.311C516.33 180.751 516.02 181.991 515.41 183.031C514.8 184.071 513.95 184.881 512.89 185.471C511.82 186.061 510.57 186.351 509.13 186.351C507.05 186.351 505.33 185.701 503.97 184.391ZM503.05 192.031H515.13V232.991H503.05V192.031Z" fill="white"/>
<path d="M526.97 201.151H519.21V192.031H526.97V187.231C526.97 184.241 527.64 181.581 528.97 179.231C530.3 176.881 532.16 175.101 534.53 173.871C536.9 172.641 539.66 172.031 542.81 172.031C545.96 172.031 548.88 172.741 551.41 174.151C553.94 175.561 555.93 177.421 557.37 179.711L552.81 186.831C552.01 185.341 550.92 184.121 549.53 183.191C548.14 182.261 546.65 181.791 545.05 181.791C543.24 181.791 541.77 182.391 540.65 183.591C539.53 184.791 538.97 186.381 538.97 188.351V192.031H554.09V201.151H538.97L539.05 232.991H527.05L526.97 201.151Z" fill="white"/>
<path d="M566.34 250.431C563.72 249.791 561.37 248.881 559.26 247.711C557.15 246.541 555.46 245.121 554.18 243.471L559.22 234.991C560.34 236.321 561.65 237.471 563.14 238.431C564.63 239.391 566.29 240.111 568.1 240.591C569.91 241.071 571.75 241.311 573.62 241.311C576.29 241.311 578.58 240.871 580.5 239.991C582.42 239.111 583.9 237.821 584.94 236.111C585.98 234.401 586.5 232.401 586.5 230.111V227.071H586.42C585.09 229.471 583.27 231.361 580.98 232.751C578.69 234.141 576.21 234.831 573.54 234.831C570.5 234.831 567.82 234.161 565.5 232.831C563.18 231.501 561.39 229.591 560.14 227.111C558.89 224.631 558.26 221.761 558.26 218.511V192.031H570.34V216.591C570.34 218.191 570.63 219.641 571.22 220.951C571.81 222.261 572.67 223.261 573.82 223.951C574.97 224.641 576.29 224.991 577.78 224.991C579.27 224.991 580.77 224.591 582.1 223.791C583.43 222.991 584.48 221.941 585.26 220.631C586.03 219.321 586.42 217.761 586.42 215.951V192.031H598.5V230.431C598.5 234.751 597.51 238.461 595.54 241.551C593.57 244.641 590.79 247.061 587.22 248.791C583.65 250.521 579.43 251.391 574.58 251.391C571.7 251.391 568.95 251.071 566.34 250.431Z" fill="white"/>
<path d="M153.95 170.001C148.83 169.931 148.82 177.981 153.95 177.911H180.98C186.12 178.001 186.13 169.911 180.98 170.001H153.95ZM193.82 170.001C188.72 169.931 188.69 177.981 193.82 177.911H258.05C260.23 177.911 261.99 176.141 261.99 173.971C261.99 171.781 260.23 170.011 258.05 170.011H193.82V170.001ZM153.95 183.681C148.84 183.611 148.81 191.671 153.95 191.591H198.28C200.46 191.591 202.22 189.821 202.22 187.641C202.23 185.461 200.46 183.681 198.28 183.681H153.95ZM153.95 197.381C148.85 197.311 148.81 205.341 153.95 205.271H218.53C220.71 205.271 222.47 203.501 222.47 201.331C222.47 199.151 220.7 197.391 218.53 197.391H153.95V197.381ZM258.05 247.421C263.17 247.491 263.18 239.441 258.05 239.511H231.02C225.88 239.421 225.87 247.511 231.02 247.421H258.05ZM218.17 247.421C223.27 247.491 223.3 239.441 218.17 239.511H153.94C151.77 239.521 150 241.281 150 243.461C150 245.651 151.76 247.421 153.94 247.421H218.17ZM258.05 233.741C263.16 233.811 263.19 225.751 258.05 225.831H213.72C211.54 225.831 209.78 227.601 209.78 229.781C209.77 231.961 211.54 233.741 213.72 233.741H258.05ZM258.05 220.041C263.15 220.111 263.19 212.081 258.05 212.151H193.47C191.29 212.151 189.53 213.921 189.53 216.091C189.53 218.271 191.3 220.031 193.47 220.031H258.05V220.041Z" fill="url(#paint0_linear_396_299)"/>
<defs>
<linearGradient id="paint0_linear_396_299" x1="150" y1="208.711" x2="264.572" y2="219.186" gradientUnits="userSpaceOnUse">
<stop offset="0.06" stop-color="#4059D0"/>
<stop offset="0.555" stop-color="#CC58BB"/>
<stop offset="1" stop-color="#F4B57F"/>
</linearGradient>
</defs>
</svg>
